<svg xmlns="http://www.w3.org/2000/svg" xmlns:xlink="http://www.w3.org/1999/xlink" width="1080" height="1080" viewBox="0 0 1080 1080">
	<defs>
		<linearGradient id="g1" x2="1" gradientUnits="userSpaceOnUse" gradientTransform="matrix(0,-476.051,1555.198,0,489.353,1128.469)">
			<stop offset="0" stop-color="#763bff"/>
			<stop offset="1" stop-color="#3100a2"/>
		</linearGradient>
	</defs>
	<style>
		.s0 { fill: #ffffff }
		.s1 { fill: #2c0091 }
		.s2 { fill: url(#g1) }
	</style>
	<g>
		<g>
			<path class="s0" d="m0 0h1080v1080h-1080z"/>
			<path fill-rule="evenodd" class="s1" d="m1080 0v658.9h-128.3v-249.2h-183.5l-231.6 249h-276.1c58-75.1 326.1-35 326.1-189.6 0-92.1-86.9-137.5-223.4-137.5-132.4 0-230.5 37.2-238.7 157.8h145.1c4.2-47.1 42.4-66.7 92.8-66.7 53.1 0.4 78.5 18.8 78.5 44.9 0 20.3-19 35-42.7 41.4l-98.5 27.8c-76.3 21.3-139.6 53.1-170.2 122.3h-129.5v-659.1zm-947.6 96.7c-3.4 0-5.6 2.2-5.6 5.6l0.4 147c0 3 2.2 5.1 5.2 5.1h220.3c43.7 0 78.9-35.5 78.9-78.8 0-43.3-35.2-78.9-78.9-78.9h-220.3zm316.7 5.6l0.5 147c0 3.4 2.1 5.1 5.1 5.1h68.2c3.4 0 5.1-2.1 5.1-5.1v-147c0-3.4-2.1-5.6-5.1-5.6h-68.6c-3.5 0-5.2 2.2-5.2 5.6zm98.6 73.3c0 43.3 35.2 78.8 78.9 78.8h222.9c3.4 0 5.1-2.1 5.1-5.1v-78c0-3.4-2.1-5.6-5.6-5.6h-68.1c-3.5 0-5.6 2.2-5.6 5.6l0.4 63.4h-90.4c-22.7 0-59.1-17.5-59.1-58.7 0-41.1 33-59.6 58.7-59.6h89.4c2.1 0 3.3-0.9 4-2.1l5.6-9.9c2-3.3-0.5-8.1-5-7.7h-152.3c-43.7 0-78.9 35.2-78.9 78.9zm326.6-73.3l0.4 147c0 3 2.2 5.1 5.2 5.1h68.1c3 0 5.2-1.7 5.2-5.1v-147c0-3.4-2.2-5.6-5.6-5.6h-67.7c-3.4 0-5.6 2.2-5.6 5.6zm-580.8 14.6c33.9 0 58.8 28.2 58.8 59.1 0 30-24.5 59.2-58.8 59.2h-87.8v-118.3zm537.8 542.2h-149.5l149.5-160.1z"/>
			<path class="s1" d="m0 749.4v330.6h1080v-330.6h-128.5v119.1h-121.5v-119.1z"/>
		</g>
		<path class="s2" d="m0 749.4v330.6h1080v-330.6h-128.5v119.1h-121.5v-119.1z"/>
		<g>
			<path class="s0" d="m420.6 984.9v-27.9h27.9v27.9z"/>
			<path class="s0" d="m481.7 984.9v-110.7h24.6v27l-2.7-3.5q2.2-5.7 5.8-10.4 3.5-4.7 8.8-7.8 4-2.5 8.7-3.9 4.7-1.3 9.7-1.7 5-0.4 10.1 0.3v26q-4.7-1.4-10.7-1-6.1 0.5-11.1 2.8-4.9 2.3-8.3 6-3.4 3.8-5.1 8.8-1.7 5.1-1.7 11.5v56.6z"/>
			<path fill-rule="evenodd" class="s0" d="m613.9 987.9q-16.7 0-29.3-7.5-12.6-7.4-19.6-20.6-7.1-13.2-7.1-30.3 0-17.3 7.2-30.5 7.2-13.2 19.8-20.5 12.6-7.4 29-7.4 16.7 0 29.4 7.5 12.6 7.4 19.7 20.6 7.1 13.2 7.1 30.3 0 17.2-7.2 30.4-7.1 13.2-19.7 20.6-12.7 7.4-29.3 7.4zm0-26q13.4 0 20-9.1 6.7-9 6.7-23.3 0-14.8-6.8-23.6-6.7-8.8-19.9-8.8-9.1 0-15 4.1-5.8 4.1-8.6 11.4-2.8 7.3-2.8 16.9 0 14.9 6.7 23.6 6.7 8.8 19.7 8.8z"/>
		</g>
	</g>
</svg>
