<svg xmlns="http://www.w3.org/2000/svg" width="30" height="26" fill="none"><path fill="#194C7E" d="M24.515 26C27.985 26 30 24.356 30 21.287c0-2.74-1.791-4.604-4.701-4.604-1.68 0-2.91.548-3.583 1.644-.671-.877-1.119-2.302-1.119-4.494 0-4.714 1.567-8.989 5.485-12.935.448-.438-.336-1.206-.895-.767-5.038 4.823-8.172 9.756-8.172 16.004 0 6.467 2.798 9.865 7.5 9.865ZM7.5 26c3.47 0 5.485-1.644 5.485-4.713 0-2.74-1.791-4.604-4.701-4.604-1.68 0-2.91.548-3.583 1.644-.671-.877-1.119-2.302-1.119-4.494 0-4.714 1.567-8.989 5.485-12.935.448-.438-.336-1.206-.895-.767C3.134 4.954 0 9.887 0 16.135 0 22.602 2.799 26 7.5 26Z"/></svg>